<?xml version="1.0" standalone="no"?><!DOCTYPE svg PUBLIC "-//W3C//DTD SVG 1.1//EN" "http://www.w3.org/Graphics/SVG/1.1/DTD/svg11.dtd"><svg t="1686746793882" class="icon" viewBox="0 0 1024 1024" version="1.1" xmlns="http://www.w3.org/2000/svg" p-id="1244" xmlns:xlink="http://www.w3.org/1999/xlink" width="256" height="256"><path d="M512 0a512 512 0 1 1 0 1024A512 512 0 0 1 512 0z m0 109.714286a402.285714 402.285714 0 1 0 0 804.571428 402.285714 402.285714 0 0 0 0-804.571428z m3.657143 131.657143a54.857143 54.857143 0 0 1 54.857143 54.857142V460.8h164.571428a54.857143 54.857143 0 1 1 0 109.714286H570.514286v164.571428a54.857143 54.857143 0 1 1-109.714286 0V570.514286H296.228571a54.857143 54.857143 0 0 1 0-109.714286H460.8V296.228571a54.857143 54.857143 0 0 1 54.857143-54.857142z" p-id="1245" fill="#707070"></path></svg>